<svg width="24" height="24" viewBox="0 0 24 24" fill="none" xmlns="http://www.w3.org/2000/svg">
<path d="M12 0.5C18.3479 0.5 23.5 5.65214 23.5 12C23.5 18.3479 18.3479 23.5 12 23.5C5.65214 23.5 0.5 18.3479 0.5 12C0.5 5.65214 5.65214 0.5 12 0.5ZM16.9316 6.73633C16.6091 6.73639 16.2525 6.82413 15.6035 7.05957C14.9457 7.29821 13.9301 7.71076 12.2656 8.40527C11.6809 8.64641 10.8049 9.02019 9.6377 9.52344L5.27246 11.416C4.97483 11.5363 4.71435 11.6667 4.5166 11.8125C4.3334 11.9476 4.11116 12.1648 4.0752 12.4834C4.04778 12.7236 4.1163 12.9433 4.25781 13.1201C4.38452 13.2782 4.55254 13.3807 4.69824 13.4521C4.97603 13.5884 5.36923 13.6977 5.70996 13.8057V13.8066C6.0248 13.9116 6.39465 14.0236 6.74414 14.1113C7.08211 14.1962 7.43802 14.2665 7.71191 14.2744V14.2754L7.71289 14.2744L7.71387 14.2754V14.2744C8.24991 14.2907 8.78666 14.0582 9.30273 13.71L9.30371 13.7109C10.34 13.0125 11.2159 12.4236 11.9326 11.9443C11.7169 12.1457 11.5121 12.3388 11.333 12.5049L10.7344 13.0625L10.7314 13.0654C10.6526 13.1457 10.5715 13.2237 10.4873 13.3037C10.4053 13.3816 10.3173 13.4644 10.2363 13.5459C10.0823 13.7009 9.90134 13.8999 9.79688 14.1367C9.67725 14.408 9.66337 14.7173 9.8252 15.0264C9.9324 15.231 10.1045 15.412 10.3203 15.5791L10.5498 15.7422C11.0558 16.0755 11.4579 16.3491 11.8672 16.6279L13.2246 17.541C13.3834 17.646 13.5316 17.7541 13.6924 17.8682C13.8481 17.9787 14.0145 18.0938 14.1865 18.1943C14.5337 18.3971 14.9459 18.5648 15.4385 18.5225L15.4463 18.5215L15.4531 18.5205C16.0281 18.4542 16.4182 17.9793 16.626 17.2217L16.7031 16.8799C17.0493 15.0231 17.693 11.2472 17.9707 9.04492L18.0654 8.20703L18.0664 8.19531C18.0746 8.08045 18.0702 7.958 18.0674 7.87793C18.0658 7.8327 18.0647 7.80161 18.0645 7.77637C18.0644 7.77207 18.0644 7.76848 18.0645 7.76562L18.0732 7.71387L18.0645 7.6416C18.0451 7.48719 17.9781 7.20223 17.7119 6.98926H17.7109C17.5595 6.86622 17.3892 6.80721 17.2656 6.77734C17.1353 6.74589 17.0138 6.73633 16.9316 6.73633Z" fill="#252420" stroke="black"/>
</svg>
